<?xml version="1.0" standalone="no"?>
<!DOCTYPE svg PUBLIC "-//W3C//DTD SVG 20010904//EN"
 "http://www.w3.org/TR/2001/REC-SVG-20010904/DTD/svg10.dtd">
<svg version="1.0" xmlns="http://www.w3.org/2000/svg"
 width="700.000000pt" height="700.000000pt" viewBox="0 0 700.000000 700.000000"
 preserveAspectRatio="xMidYMid meet">
<metadata>
Created by potrace 1.11, written by Peter Selinger 2001-2013
</metadata>
<g transform="translate(0.000000,700.000000) scale(0.100000,-0.100000)"
fill="#000000" stroke="none">
<path d="M3367 6494 c-1 -2 -22 -6 -46 -9 -344 -43 -672 -249 -878 -553 -62
-90 -149 -278 -169 -364 -2 -10 -7 -28 -10 -40 -33 -134 -33 -155 -33 -2108
l1 -1925 23 -110 c44 -208 131 -394 258 -550 131 -160 323 -302 509 -376 77
-31 202 -67 251 -73 23 -3 56 -8 72 -12 70 -14 286 -7 375 11 14 3 40 8 59 11
18 3 68 17 110 31 389 130 690 427 816 805 66 198 63 96 64 2203 0 1080 -3
1937 -8 1960 -5 22 -12 58 -15 80 -16 122 -101 325 -194 465 -72 108 -232 269
-342 341 -145 96 -323 170 -470 194 -19 3 -44 8 -54 12 -21 6 -313 13 -319 7z"/>
<path d="M684 6401 c-66 -41 -67 -139 -1 -179 40 -25 142 -78 462 -242 280
-145 302 -151 356 -102 25 22 32 38 35 72 3 40 -1 48 -34 78 -20 19 -129 82
-242 139 -113 58 -270 139 -349 179 -80 41 -156 74 -170 74 -14 0 -40 -9 -57
-19z"/>
<path d="M6105 6354 c-149 -76 -452 -232 -540 -279 -75 -41 -109 -86 -100
-135 11 -59 66 -98 125 -90 15 2 163 75 375 185 66 35 176 91 244 126 127 66
161 96 161 147 0 56 -56 112 -112 112 -13 0 -81 -30 -153 -66z"/>
<path d="M484 5200 c-36 -14 -64 -59 -64 -102 0 -32 7 -47 34 -74 l35 -35 389
3 c425 3 403 0 434 63 8 17 13 36 12 43 -1 6 -2 19 -3 28 0 9 -16 31 -35 50
l-34 34 -374 -1 c-205 0 -383 -4 -394 -9z"/>
<path d="M5750 5202 c-62 -28 -86 -89 -60 -151 24 -60 39 -62 456 -59 l376 3
29 33 c40 45 40 99 0 144 l-29 33 -379 2 c-208 1 -385 -1 -393 -5z"/>
<path d="M1360 4336 c-43 -21 -340 -174 -570 -293 -58 -30 -115 -64 -127 -76
-33 -29 -40 -81 -17 -122 40 -76 93 -76 239 0 61 32 180 94 265 138 85 44 199
103 253 130 105 53 124 73 131 128 10 91 -81 141 -174 95z"/>
<path d="M5524 4344 c-59 -28 -76 -107 -36 -161 9 -12 64 -46 122 -76 161 -82
457 -235 536 -278 68 -36 93 -43 140 -40 27 1 72 46 81 78 7 32 -14 96 -38
111 -32 20 -484 255 -669 348 -61 31 -99 36 -136 18z"/>
</g>
</svg>
