<?xml version="1.0" encoding="utf-8"?>
<!-- Generator: Adobe Illustrator 23.0.1, SVG Export Plug-In . SVG Version: 6.00 Build 0)  -->
<svg version="1.1" id="Layer_1" xmlns="http://www.w3.org/2000/svg" xmlns:xlink="http://www.w3.org/1999/xlink" x="0px" y="0px"
	 viewBox="0 0 512 512" style="enable-background:new 0 0 512 512;" xml:space="preserve">
<style type="text/css">
	.st0{fill:#22BBCC;}
	.st1{fill:#F2C14E;}
	.st2{fill:#D7263D;}
</style>
<title>Lighthouse</title>
<path class="st0" d="M473.5,131h-50.3c-4.4,0-8,3.6-8,8s3.6,8,8,8h50.3c4.4,0,8-3.6,8-8S477.9,131,473.5,131L473.5,131z"/>
<path class="st0" d="M454.2,43.3l-50.3,26c-3.9,2-5.5,6.9-3.4,10.8c2,3.9,6.9,5.5,10.8,3.4l50.3-26c3.9-2,5.5-6.9,3.4-10.8
	C462.9,42.8,458.1,41.2,454.2,43.3L454.2,43.3L454.2,43.3z"/>
<path class="st0" d="M461.5,220.1l-50.3-26c-3.9-2-8.8-0.4-10.7,3.5c-2,3.9-0.4,8.6,3.4,10.7l50.3,26c3.9,2,8.8,0.5,10.8-3.4
	C467,227,465.4,222.2,461.5,220.1L461.5,220.1z"/>
<path class="st0" d="M96.9,139c0-4.4-3.6-8-8-8H38.5c-4.4,0-8,3.6-8,8s3.6,8,8,8h50.3C93.3,147,96.9,143.4,96.9,139z"/>
<path class="st0" d="M108.2,69.3l-50.3-26c-3.9-2-8.8-0.5-10.8,3.4c-2,3.9-0.5,8.8,3.4,10.8l0,0l50.3,26c3.9,2,8.8,0.5,10.8-3.4
	C113.6,76.1,112.1,71.3,108.2,69.3z"/>
<path class="st0" d="M100.8,194.1l-50.3,26c-3.9,2-5.5,6.9-3.4,10.8c2,3.9,6.9,5.5,10.8,3.4l50.3-26c3.9-2.1,5.4-6.9,3.3-10.8
	C109.5,193.7,104.7,192.2,100.8,194.1L100.8,194.1z"/>
<path class="st1" d="M349,261H163V129.7c0-51.4,41.6-93,93-93h0c51.4,0,93,41.6,93,93V261z"/>
<path class="st2" d="M163,261h186v131.3c0,51.4-41.6,93-93,93h0c-51.4,0-93-41.6-93-93V261z"/>
</svg>
